<svg xmlns="http://www.w3.org/2000/svg" viewBox="0 0 1276.89 302.27"><defs><style>.cls-1,.cls-11,.cls-2{fill:#a3caa9;}.cls-1{opacity:0.35;}.cls-2{opacity:0.52;}.cls-13,.cls-14,.cls-15,.cls-3,.cls-4,.cls-5,.cls-6,.cls-7{fill:none;}.cls-3,.cls-5,.cls-7{stroke:#eeeeeb;}.cls-13,.cls-14,.cls-15,.cls-16,.cls-3,.cls-4,.cls-5,.cls-6,.cls-7{stroke-miterlimit:10;}.cls-3{stroke-width:2px;}.cls-4,.cls-6{stroke:#1f1f18;}.cls-13,.cls-15,.cls-4,.cls-6,.cls-7{stroke-width:10px;}.cls-13,.cls-5,.cls-6{stroke-linecap:round;}.cls-16,.cls-5{stroke-width:8px;}.cls-16,.cls-8{fill:#eeeeeb;}.cls-9{fill:#564e3c;}.cls-10{fill:#df7737;}.cls-12{fill:#70b0ae;}.cls-13,.cls-14,.cls-15,.cls-16{stroke:#70b0ae;}.cls-14{stroke-width:16px;}</style></defs><title>Asset 11</title><g id="Layer_2" data-name="Layer 2"><g id="Layer_1-2" data-name="Layer 1"><path class="cls-1" d="M1266.63,297H2.89a177.55,177.55,0,0,1-1-57.74c3.92-26.47,11.42-78.78,60-106.14,8.59-4.84,26.67-15,51-15.29,31.43-.34,43.82,16.2,96,28.87,27.23,6.61,22.43,1.76,43,7.64,33.38,9.55,61.32,26.69,94.74,47.2,3.39,2.08,10,5.94,19.14,11.39a415.7,415.7,0,0,0,40.57,20.82c5.19,2.33,10.83,4.61,18.42,7.4,1.56.58,10.94,3.85,27.15,8.17,63.35,16.85,231,49.48,443.41-2,25.85-6.27,52.37-13.77,79.44-22.71q26.1-8.61,52.84-19c14.62-5.71,28.21-11.39,40.89-17,38-16.66,67.8-32.12,92.18-43.5,36.51-17,60.91-24.92,82.67-13.84C1285.45,152.73,1281.27,226.55,1266.63,297Z"/><path class="cls-2" d="M517.68,297H2.89a371.64,371.64,0,0,1,38-90.86c8.59-14.71,36.26-59.82,87.54-93,11.62-7.52,23.69-14.31,38.06-12.93,18.32,1.75,33.81,16.16,49.16,33.38,21.86,24.51,43.44,54.69,72.53,62C310.07,201,333,201.63,333,201.63c5,.13,9.61.07,13.61-.09,8.37-.33,14.13-1.07,16-1.26,24.65-2.43,58.22,23.5,89.27,49,17,14,33.25,27.84,46.84,36.86A170.06,170.06,0,0,0,517.68,297Z"/><path class="cls-2" d="M1265.29,297H811.79c37.09-13.09,67.06-30.2,83.27-49.37l.26-.3c6.81-8.14,21.3-28.08,45.38-30.82,13.3-1.51,24,2.85,34.06,8.11,14.29,7.5,27.07,16.85,43.6,13.54,13.89-2.79,15.14-11.45,45.64-44.64l4.49-4.89c25-27.12,38.26-40.9,54-45.16,12.65-3.44,25.89-2,38.23,1.66,25.24,7.5,46.7,24.38,51.44,28.1C1257.69,208.9,1265.78,261.58,1265.29,297Z"/><line class="cls-3" x1="828.4" y1="195.89" x2="828.49" y2="127.71"/><line class="cls-3" x1="820.1" y1="198.11" x2="786.08" y2="139.02"/><line class="cls-3" x1="814.02" y1="204.19" x2="755.02" y2="170.02"/><line class="cls-3" x1="811.8" y1="212.49" x2="743.62" y2="212.4"/><line class="cls-3" x1="814.02" y1="220.79" x2="754.93" y2="254.8"/><line class="cls-3" x1="820.1" y1="226.87" x2="785.93" y2="285.86"/><line class="cls-3" x1="828.4" y1="229.09" x2="828.31" y2="297.27"/><line class="cls-3" x1="836.7" y1="226.87" x2="870.71" y2="285.95"/><line class="cls-3" x1="842.78" y1="220.79" x2="901.77" y2="254.95"/><line class="cls-3" x1="845" y1="212.49" x2="913.18" y2="212.58"/><line class="cls-3" x1="842.78" y1="204.19" x2="901.86" y2="170.18"/><line class="cls-3" x1="836.7" y1="198.11" x2="870.86" y2="139.11"/><line class="cls-3" x1="517.41" y1="195.89" x2="517.5" y2="127.71"/><line class="cls-3" x1="509.11" y1="198.11" x2="475.1" y2="139.02"/><line class="cls-3" x1="503.04" y1="204.19" x2="444.04" y2="170.02"/><line class="cls-3" x1="500.81" y1="212.49" x2="432.63" y2="212.4"/><line class="cls-3" x1="503.04" y1="220.79" x2="443.95" y2="254.8"/><line class="cls-3" x1="509.11" y1="226.87" x2="474.95" y2="285.86"/><line class="cls-3" x1="517.41" y1="229.09" x2="517.32" y2="297.27"/><line class="cls-3" x1="525.71" y1="226.87" x2="559.73" y2="285.95"/><line class="cls-3" x1="531.79" y1="220.79" x2="590.79" y2="254.95"/><line class="cls-3" x1="534.02" y1="212.49" x2="602.19" y2="212.58"/><line class="cls-3" x1="531.79" y1="204.19" x2="590.88" y2="170.18"/><line class="cls-3" x1="525.71" y1="198.11" x2="559.88" y2="139.11"/><circle class="cls-4" cx="828.4" cy="212.49" r="84.78"/><circle class="cls-4" cx="517.41" cy="212.49" r="84.78"/><line class="cls-5" x1="639.89" y1="223.4" x2="621.33" y2="179.78"/><line class="cls-6" x1="630.61" y1="179.78" x2="605.68" y2="179.78"/><line class="cls-7" x1="587.76" y1="83.05" x2="598.68" y2="111.54"/><path class="cls-8" d="M828.4,231.09a18.6,18.6,0,1,1,18.6-18.6A18.62,18.62,0,0,1,828.4,231.09Z"/><path class="cls-9" d="M828.4,195.89a16.6,16.6,0,1,1-16.6,16.6,16.6,16.6,0,0,1,16.6-16.6m0-4a20.6,20.6,0,1,0,20.6,20.6,20.62,20.62,0,0,0-20.6-20.6Z"/><path class="cls-3" d="M776,72.85q39.71-61.59,45.6-58.51a1.54,1.54,0,0,1,.64.71"/><path class="cls-10" d="M618.53,70c-.55,2.64-7.31,1.81-17.6,6.27-7.6,3.3-6.87,5-13.17,7.15a39.38,39.38,0,0,1-20.26,1.22c-2.44-.54-6.45-2.32-14.37-5.86-4.23-1.88-7.68-3.49-10-4.6C547.37,64,552.79,60.59,557,59.35c9.45-2.78,14,5.08,30,4.6,10.2-.3,14.8-3.67,22.94-.84C614.18,64.58,619,67.6,618.53,70Z"/><path class="cls-11" d="M541.47,208.14c-2.66-9-5-16.84-7.27-24.69-.89-3.06-1.94-6.72-5.32-9.14-4-2.87-9-2.37-11.44-1.93l-86.83-6.3a98.37,98.37,0,0,1,86.8-52c45.88,0,86.93,38.68,96.42,78.58a81.58,81.58,0,0,1,2,12.91"/><path class="cls-12" d="M730.81,227.43l13.28-3.34q3.33-5,6.74-10,24.74-36.12,50.56-68.34l4-30.91a98.53,98.53,0,0,0-74.54,112.55Z"/><path class="cls-13" d="M822.21,15.05q1.68,23,3.34,45.88a12.68,12.68,0,0,1-3.34,7.8c-4.82,5-12.05,3.52-12.46,3.42l-33.78.7"/><path class="cls-14" d="M517.41,212.49c5.16-1.14,12.73-2.68,21.93-4a327.66,327.66,0,0,1,55-3.31c74.16.91,74.12,6,85.85.44a45,45,0,0,0,6.44-3.72c19.71-14,64.5-98.88,64.5-98.88,4.53-8.59,11.78-21.86,21.66-37.83"/><path class="cls-15" d="M604.32,124a54.45,54.45,0,0,0-21.94,7.45,53.82,53.82,0,0,0-13.24,11.59c-9.73,11.45-28.48,36.25-51.73,69.43"/><line class="cls-15" x1="598.68" y1="111.54" x2="634.97" y2="206.25"/><path class="cls-13" d="M723.22,5l27.71,1.14q38.73,103.19,77.47,206.35"/><path class="cls-3" d="M639.89,247.88c-8.47-.53-16.08-1-22.65-1.44-36.88-2.4-65.32-4.54-93.33-15.75-10-4-16.61-7.83-16.28-11.55.3-3.32,6-5.5,9.78-6.65"/><circle class="cls-16" cx="639.89" cy="223.4" r="24.48"/><line class="cls-13" x1="658.46" y1="267.02" x2="639.89" y2="223.4"/><path class="cls-8" d="M517.41,226.59a14.1,14.1,0,1,1,14.11-14.1A14.12,14.12,0,0,1,517.41,226.59Z"/><path class="cls-9" d="M517.41,200.89a11.6,11.6,0,1,1-11.6,11.6,11.62,11.62,0,0,1,11.6-11.6m0-5A16.6,16.6,0,1,0,534,212.49a16.6,16.6,0,0,0-16.61-16.6Z"/><line class="cls-6" x1="669.08" y1="267.02" x2="644.15" y2="267.02"/></g></g></svg>