<svg xmlns="http://www.w3.org/2000/svg" viewBox="0 0 211.03 211.03"><defs><style>.cls-1{fill:#a3caa9;opacity:0.35;}.cls-2{fill:#75442c;}.cls-3{fill:#dbdbdb;}.cls-4{fill:#f9d9c7;}.cls-5{fill:none;stroke:#000;stroke-miterlimit:10;stroke-width:2px;}</style></defs><title>Asset 11</title><g id="Layer_2" data-name="Layer 2"><g id="Layer_1-2" data-name="Layer 1"><path class="cls-1" d="M211,105.51a105.39,105.39,0,0,1-45.34,86.69l-.54.37A104.94,104.94,0,0,1,105.51,211h0a105,105,0,0,1-59.66-18.49c-.17-.11-.34-.24-.52-.35A105.52,105.52,0,1,1,211,105.51Z"/><path class="cls-2" d="M123.33,51.47a4.74,4.74,0,0,0,.78-2.29c0-1.87-1.52-3.26-3.18-4.7a17.67,17.67,0,0,0-5.34-3.42,28.3,28.3,0,0,0-12.38-2.29,27,27,0,0,0-10.95,2.94c-4,1.89-4.76,3.25-5.06,4.13a6,6,0,0,0-.08,3.21c.63,3,2.88,4.53,4.86,6.59,9.09,9.44,12.76,9.91,14.49,9.67,2.49-.33,3-1.72,5.81-4a18.59,18.59,0,0,1,2.87-1.92,24.61,24.61,0,0,0,2.14-1.49C119.45,56.23,121.8,54.45,123.33,51.47Z"/><path class="cls-3" d="M120.35,51.58c-1.77-.64-2.27.35-5.12.16a11.22,11.22,0,0,1-1.47-.21c-3.47-.58-5.18,2.23-8.57,2-1.41-.11-2.83-.8-5.67-2.17a12.1,12.1,0,0,0-3.11-.93,4,4,0,0,0-1,0,15.23,15.23,0,0,0-4,1,8.09,8.09,0,0,0-2.78,1.14,5.44,5.44,0,0,0-1.13,5.33c.17.54.81,2.17,3.68,3.49,4.68,2.16,6.61-.52,14.06.09,3.82.31,5.59,1.2,9,.57,1.25-.23,1.29-.41,4.73-1.23,2-.46,2.61-.56,3.31-1.22a4.87,4.87,0,0,0,1.35-4.33A5.13,5.13,0,0,0,120.35,51.58Z"/><path class="cls-2" d="M162,185c-2.52-8.65,1.54-10.15.74-23.61a46.81,46.81,0,0,0-.56-5.16,115.76,115.76,0,0,0-2.93-13c-1.38-4.52-2.49-13.23-1.48-31.52.42-2.72,3.23-23-11.45-39.43,0,0-14.19-15.91-37-15.91a38,38,0,0,0-3.82.17h0a37.83,37.83,0,0,0-3.82-.17c-22.8,0-37,15.91-37,15.91C50,88.68,52.79,109,53.21,111.7c1,18.29-.1,27-1.48,31.52a118.38,118.38,0,0,0-2.93,13,46.81,46.81,0,0,0-.56,5.16c-.8,13.46,3.26,15,.74,23.61a47.45,47.45,0,0,1-3.14,7.58A105,105,0,0,0,105.5,211h0a104.94,104.94,0,0,0,59.64-18.46A49.83,49.83,0,0,1,162,185Z"/><path class="cls-4" d="M105.53,84.23c-1.92,0-21.58.18-31.76,16a35.06,35.06,0,0,0-5.35,18.88c0,2.24.19,4,.28,5.14.28,3.31,1.51,9.76,2.2,14,.37,2.28.28,2.69.58,4.09a33.31,33.31,0,0,0,2.18,6.38c2.87,6,10.69,11.53,12.5,12.76l.25.17c7.18,4.81,12.86,8.63,19.1,8.65s12.16-3.88,19.26-8.65l.25-.17c1.82-1.23,9.64-6.73,12.5-12.76a33.31,33.31,0,0,0,2.18-6.38c.3-1.4.21-1.81.58-4.09.69-4.22,1.92-10.67,2.2-14,.1-1.11.29-3.14.28-5.14a39.23,39.23,0,0,0-4.68-17C132.39,91.94,119.38,84.32,105.53,84.23Z"/><path class="cls-2" d="M105.59,69.22v4.62A38.11,38.11,0,0,0,87,86.17,34.38,34.38,0,0,0,84.32,90a28,28,0,0,0-3.76,3c-7.19,6.92-8.55,15.87-9.7,21.42a120.37,120.37,0,0,1-10.47,29.42c-.66-4.37-3.84-27.34,6.81-48.38C79.53,71.19,100.26,69.37,105.59,69.22Z"/><path class="cls-2" d="M105.59,69.22v4.62l17,14.39A20.38,20.38,0,0,1,129,92.61c4.35,4.45,4.68,9.15,7.58,17.72.8,2.34.14.12,5.88,13.94,4.25,10.26,8.06,19.78,8.14,19.75h0c.67-4.36,3.93-27.32-6.66-48.39C131.65,71.27,110.92,69.38,105.59,69.22Z"/><path class="cls-5" d="M101.4,128.63c1,3.65-4.09,8.9-9.2,10.89a16.67,16.67,0,0,1-10.94.15c-8.51-2.62-11.71-10.57-12.83-13.33s-1-4-.49-4.91c1-1.78,3.61-2.07,6.76-2.12,11.1-.2,21.07,2.68,25.72,7.65A3.86,3.86,0,0,1,101.4,128.63Z"/><path class="cls-5" d="M101,128.18a9.55,9.55,0,0,0,9.48,0"/><path class="cls-5" d="M101.05,131.19a11,11,0,0,1,9.15,0"/><path class="cls-5" d="M110.32,128.63c-1,3.65,4.1,8.9,9.2,10.89a16.71,16.71,0,0,0,11,.15c8.5-2.62,11.71-10.57,12.82-13.33s1-4,.5-4.91c-1-1.78-3.62-2.07-6.76-2.12-11.11-.2-21.07,2.68-25.72,7.65A3.86,3.86,0,0,0,110.32,128.63Z"/></g></g></svg>