<svg xmlns="http://www.w3.org/2000/svg" xmlns:xlink="http://www.w3.org/1999/xlink" viewBox="0 0 211.03 211.03"><defs><style>.cls-1{fill:#a3caa9;opacity:0.35;}.cls-2{fill:#230e04;}.cls-3{fill:#f4d3bd;}.cls-4,.cls-5,.cls-6{fill:none;stroke-miterlimit:10;}.cls-4{stroke:url(#linear-gradient);}.cls-5{stroke:url(#linear-gradient-2);}.cls-6{stroke:url(#linear-gradient-3);}</style><linearGradient id="linear-gradient" x1="102.4" y1="124.95" x2="108.48" y2="131.04" gradientUnits="userSpaceOnUse"><stop offset="0" stop-color="#fbbb4b"/><stop offset="0" stop-color="#f5b749"/><stop offset="0.05" stop-color="#c7953c"/><stop offset="0.09" stop-color="#9d752f"/><stop offset="0.14" stop-color="#775924"/><stop offset="0.19" stop-color="#57411a"/><stop offset="0.25" stop-color="#3b2c12"/><stop offset="0.32" stop-color="#251c0b"/><stop offset="0.4" stop-color="#140f06"/><stop offset="0.49" stop-color="#090603"/><stop offset="0.63" stop-color="#020101"/><stop offset="1"/></linearGradient><linearGradient id="linear-gradient-2" x1="72.92" y1="119.2" x2="95.23" y2="141.51" xlink:href="#linear-gradient"/><linearGradient id="linear-gradient-3" x1="138.29" y1="141.68" x2="115.64" y2="119.04" xlink:href="#linear-gradient"/></defs><title>Asset 16</title><g id="Layer_2" data-name="Layer 2"><g id="Layer_1-2" data-name="Layer 1"><path class="cls-1" d="M211,105.51A105.52,105.52,0,1,1,105.51,0,105.44,105.44,0,0,1,211,105.51Z"/><path class="cls-2" d="M157.76,114.43V197.2a105.6,105.6,0,0,1-104.49,0V114.43a52.25,52.25,0,0,1,104.49,0Z"/><path class="cls-3" d="M143.67,113.63v0a40,40,0,0,0-14.86-27.2c-.36-.28-.74-.57-1.13-.85a37.14,37.14,0,0,0-22.09-7.35h-.15a37.08,37.08,0,0,0-22.08,7.37c-.38.27-.77.56-1.14.85a40,40,0,0,0-14.91,27.74c0,1.65.13,3.53.29,5.63a105.84,105.84,0,0,0,2.26,15.29c1.43,6.44,2.13,9.66,3.82,13.08,5,10.18,13.94,15,17,16.63,3.49,1.83,8.23,4.32,14.82,4.29s11.33-2.56,15-4.56c3.44-1.84,12-6.58,16.82-16.37,1.65-3.32,2.37-6.57,3.81-13.07a107.46,107.46,0,0,0,2.26-15.29c.16-2.09.26-4,.29-5.63C143.71,114,143.7,113.8,143.67,113.63Z"/><path class="cls-2" d="M141.54,155.79A95.21,95.21,0,0,0,142,129c-1.27-10.2-2.71-19.05-9.85-26.05a31.68,31.68,0,0,0-16.84-8.24A27.15,27.15,0,0,0,96.8,90.92c-10.43,1.77-16.24,9.45-18.22,12.54-2.75,4.31-2.79,7.08-4.75,14.49a138.72,138.72,0,0,1-8.78,23.84c-1.69-2.53-14.59-22.66-4.23-44.63,6.07-12.86,21-28.3,42.19-29,20.79-.69,34.88,13.39,37.65,16.31C157.23,101.91,157.48,130.15,141.54,155.79Z"/><path class="cls-4" d="M99.83,128.16a17,17,0,0,1,11.22,0"/><path class="cls-5" d="M97.7,137.54a16.39,16.39,0,0,1-13.77,8.13,14.86,14.86,0,0,1-7.8-1.93c-6.31-3.66-7.53-11.35-6.93-16.19A11.15,11.15,0,0,1,71,122c5.19-7.13,22.72-7.37,27.65,1.69C102,129.76,97.94,137.14,97.7,137.54Z"/><path class="cls-6" d="M113.33,137.54a16.41,16.41,0,0,0,13.77,8.13,14.84,14.84,0,0,0,7.8-1.93c6.32-3.66,7.54-11.35,6.94-16.19A11.17,11.17,0,0,0,140,122c-5.19-7.13-22.72-7.37-27.64,1.69C109,129.76,113.1,137.14,113.33,137.54Z"/></g></g></svg>